<svg width="256" height="256" version="1.1" viewBox="0 0 256 256" xmlns="http://www.w3.org/2000/svg">
	<circle cx="128" cy="128" r="128" fill="#f2f2f2"/>
	<path d="m 128 16 a 112 112 0 0 0 -56 15.01 l 16 27.71 a 80 80 0 0 1 40 -10.72 v -32 z m 0 32 v 34.33 c -8.3 0 -16.1 2.25 -22.82 6.15 l -17.18 -29.76 a 80 80 0 0 0 -29.28 29.28 l 29.76 17.18 c -3.9 6.72 -6.15 14.51 -6.15 22.82 h -34.33 a 80 80 0 0 0 10.72 40 l 29.76 -17.18 c 4.01 6.92 9.79 12.69 16.7 16.7 l -17.18 29.76 a 80 80 0 0 0 40 10.72 v -34.33 h 0 c 8.3 0 16.09 -2.25 22.81 -6.15 l 17.18 29.76 a 80 80 0 0 0 29.28 -29.28 l -29.76 -17.18 c 3.9 -6.72 6.15 -14.51 6.15 -22.81 v -0 h 34.33 a 80 80 0 0 0 -10.72 -40 l 27.7 -16 a 112 112 0 0 0 -40.99 -40.99 l -16 27.7 a 80 80 0 0 0 -40 -10.72 z m -40 149.28 a 80 80 0 0 1 -29.28 -29.28 l -27.71 16 a 112 112 0 0 0 40.99 41 l 16 -27.71 z m -40 -69.28 a 80 80 0 0 1 10.72 -40 l -27.71 -16 a 112 112 0 0 0 -15.01 56 h 32 z m 120 -69.28 a 80 80 0 0 1 29.28 29.28 l -29.76 17.18 c -4.01 -6.92 -9.79 -12.69 -16.7 -16.7 l 17.18 -29.76 z m -40 29.28 a 40 40 0 0 1 40 40 a 40 40 0 0 1 -40 40 a 40 40 0 0 1 -40 -40 a 40 40 0 0 1 40 -40 z m 80 40 a 80 80 0 0 1 0 0 a 80 80 0 0 1 -10.72 40 l 27.71 16 a 112 112 0 0 0 15.01 -56 a 112 112 0 0 0 0 -0 h -32 z m -40 69.28 a 80 80 0 0 1 -40 10.72 a 80 80 0 0 1 -0 0 v 32 a 112 112 0 0 0 0 0 a 112 112 0 0 0 56 -15.01 l -16 -27.71 z" fill="#1a1a1a"/>
</svg>