<?xml version="1.0" encoding="UTF-8" standalone="no"?>
<!-- Created with Inkscape (http://www.inkscape.org/) -->

<svg
   width="128"
   height="128"
   viewBox="0 0 33.866666 33.866668"
   version="1.1"
   id="svg5"
   inkscape:version="1.1 (ce6663b3b7, 2021-05-25)"
   sodipodi:docname="help.svg"
   xmlns:inkscape="http://www.inkscape.org/namespaces/inkscape"
   xmlns:sodipodi="http://sodipodi.sourceforge.net/DTD/sodipodi-0.dtd"
   xmlns:xlink="http://www.w3.org/1999/xlink"
   xmlns="http://www.w3.org/2000/svg"
   xmlns:svg="http://www.w3.org/2000/svg">
  <sodipodi:namedview
     id="namedview7"
     pagecolor="#ffffff"
     bordercolor="#666666"
     borderopacity="1.0"
     inkscape:pageshadow="2"
     inkscape:pageopacity="0.0"
     inkscape:pagecheckerboard="0"
     inkscape:document-units="px"
     showgrid="false"
     units="px"
     inkscape:zoom="3.390625"
     inkscape:cx="58.986175"
     inkscape:cy="24.184332"
     inkscape:window-width="1920"
     inkscape:window-height="1056"
     inkscape:window-x="0"
     inkscape:window-y="0"
     inkscape:window-maximized="1"
     inkscape:current-layer="layer1" />
  <defs
     id="defs2">
    <linearGradient
       inkscape:collect="always"
       id="linearGradient6231">
      <stop
         style="stop-color:#f78292;stop-opacity:1;"
         offset="0"
         id="stop6227" />
      <stop
         style="stop-color:#f2f2f2;stop-opacity:1"
         offset="1"
         id="stop6229" />
    </linearGradient>
    <linearGradient
       inkscape:collect="always"
       xlink:href="#linearGradient6231"
       id="linearGradient6225"
       x1="14.800088"
       y1="20.305834"
       x2="3.6417737"
       y2="4.9728208"
       gradientUnits="userSpaceOnUse" />
  </defs>
  <g
     inkscape:label="Layer 1"
     inkscape:groupmode="layer"
     id="layer1">
    <circle
       style="fill:url(#linearGradient6225);fill-opacity:1;stroke-width:3.06147;stroke-linecap:square;stroke-miterlimit:1.2;paint-order:markers stroke fill"
       id="path6105"
       cx="16.933334"
       cy="16.933334"
       r="16.933334" />
    <circle
       style="fill:#f78292;fill-opacity:1;stroke-width:2.67878;stroke-linecap:square;stroke-miterlimit:1.2;paint-order:markers stroke fill"
       id="circle6187"
       cx="16.933334"
       cy="16.933334"
       r="14.816667" />
    <path
       d="m 13.733528,26.613363 q -0.74414,-0.694532 -0.74414,-1.922364 0,-1.227832 0.74414,-1.909961 0.756543,-0.694531 1.785938,-0.694531 1.029394,0 1.773535,0.694531 0.756543,0.682129 0.756543,1.909961 0,1.227832 -0.756543,1.922364 -0.744141,0.682128 -1.773535,0.682128 -1.029395,0 -1.785938,-0.682128 z m 2.530079,-6.833692 q -0.08682,0.706934 -0.768946,0.706934 -0.756543,0 -0.756543,-0.892969 0,-0.979785 0.235645,-2.00918 0.235644,-1.029394 0.533301,-1.74873 0.297656,-0.719336 0.607714,-1.550293 0.322461,-0.843359 0.42168,-1.401465 0.02481,-0.223242 0.02481,-0.334863 0,-0.63252 -0.434082,-1.016992 -0.42168,-0.396875 -1.327051,-0.396875 -0.967383,0 -2.406055,0.607715 L 11.947591,7.4393394 q 2.716113,-0.8681641 4.601269,-0.8681641 1.203028,0 2.145606,0.2232422 0.942578,0.2232422 1.537891,0.5953125 0.607714,0.3720703 0.992187,0.8929687 0.384473,0.5208984 0.533301,1.0666016 0.16123,0.5457031 0.16123,1.1782227 0,0.768945 -0.285254,1.475879 -0.285254,0.694531 -0.756543,1.265039 -0.458886,0.570508 -1.029394,1.128613 -0.558106,0.558106 -1.153418,1.141016 -0.58291,0.58291 -1.091406,1.190625 -0.508496,0.607715 -0.880567,1.401465 -0.359668,0.781347 -0.458886,1.649511 z"
       style="font-size:25.4px;line-height:1.25;font-family:Coda;-inkscape-font-specification:Coda;letter-spacing:0px;word-spacing:0px;fill:#f1f1f1;stroke-width:0.264583"
       id="path5801" />
  </g>
</svg>
