<svg xmlns="http://www.w3.org/2000/svg" xmlns:svg="http://www.w3.org/2000/svg" xmlns:xlink="http://www.w3.org/1999/xlink" id="svg5" width="128" height="128" version="1.1" viewBox="0 0 33.867 33.867"><defs id="defs2"><linearGradient id="linearGradient2133"><stop style="stop-color:#1a1a1a;stop-opacity:1" id="stop2129" offset="0"/><stop style="stop-color:#1a1a1a;stop-opacity:1" id="stop2329" offset=".401"/><stop style="stop-color:#f2f2f2;stop-opacity:1" id="stop2131" offset="1"/></linearGradient><radialGradient id="radialGradient835" cx="16.682" cy="16.577" r="4.233" fx="16.682" fy="16.577" gradientTransform="matrix(0.99068402,1.3666053,-1.8201149,1.3194441,21.990082,-37.616955)" gradientUnits="userSpaceOnUse" xlink:href="#linearGradient2133"/><radialGradient id="radialGradient979" cx="16.682" cy="16.577" r="4.233" fx="16.682" fy="16.577" gradientTransform="matrix(0.99068402,1.3666053,-1.8201149,1.3194441,21.990083,-18.566955)" gradientUnits="userSpaceOnUse" xlink:href="#linearGradient2133"/><radialGradient id="radialGradient1021" cx="16.682" cy="16.577" r="4.233" fx="16.682" fy="16.577" gradientTransform="matrix(0.99068402,1.3666053,-1.8201149,1.3194441,21.990083,-28.091956)" gradientUnits="userSpaceOnUse" xlink:href="#linearGradient2133"/><radialGradient id="radialGradient1305" cx="16.682" cy="16.577" r="4.233" fx="16.682" fy="16.577" gradientTransform="matrix(0.99068402,1.3666053,-1.8201149,1.3194441,37.865086,-28.091956)" gradientUnits="userSpaceOnUse" xlink:href="#linearGradient2133"/><radialGradient id="radialGradient1307" cx="16.682" cy="16.577" r="4.233" fx="16.682" fy="16.577" gradientTransform="matrix(0.99068402,1.3666053,-1.8201149,1.3194441,37.865086,-18.566955)" gradientUnits="userSpaceOnUse" xlink:href="#linearGradient2133"/><radialGradient id="radialGradient1309" cx="16.682" cy="16.577" r="4.233" fx="16.682" fy="16.577" gradientTransform="matrix(0.99068402,1.3666053,-1.8201149,1.3194441,37.865085,-37.616955)" gradientUnits="userSpaceOnUse" xlink:href="#linearGradient2133"/></defs><g id="layer1"><path id="rect997" d="m 4,0 h 25.866669 a 4,4 45 0 1 4,4 v 25.866669 a 4,4 135 0 1 -4,4 H 4 a 4,4 45 0 1 -4,-4 V 4 A 4,4 135 0 1 4,0 Z" style="fill:#ccc;stroke:none;stroke-width:2.9845;stroke-linecap:square;stroke-miterlimit:1.2;paint-order:markers stroke fill"/><path id="path1109" d="m 4,0 h 23.750015 c 2.209139,0 4,1.790861 4,4 v 23.750029 c 0,2.209139 -1.790861,3.999971 -4,3.999971 H 4 c -2.209139,0 -4,-1.790832 -4,-3.999971 V 4 C 0,1.790861 1.790861,0 4,0 Z" style="fill:#e0e0e0;fill-opacity:1;stroke:none;stroke-width:2.9845;stroke-linecap:square;stroke-miterlimit:1.2;paint-order:markers stroke fill"/><path id="rect854" d="M 4.1166668,2.1166668 H 29.75 a 2,2 45 0 1 2,2 V 29.75 a 2,2 135 0 1 -2,2 H 4.1166668 a 2,2 45 0 1 -2,-2 V 4.1166668 a 2,2 135 0 1 2,-2 z" style="fill:#f2f2f2;stroke-width:2.59056;stroke-linecap:square;stroke-miterlimit:1.2;paint-order:markers stroke fill"/><circle style="fill:url(#radialGradient835);fill-opacity:1;stroke:none;stroke-width:13.7376;stroke-linecap:square;stroke-miterlimit:1.2;paint-order:markers stroke fill" id="circle833" cx="8.996" cy="7.408" r="4.233"/><circle style="fill:url(#radialGradient979);fill-opacity:1;stroke:none;stroke-width:13.7376;stroke-linecap:square;stroke-miterlimit:1.2;paint-order:markers stroke fill" id="circle977" cx="8.996" cy="26.458" r="4.233"/><circle style="fill:url(#radialGradient1021);fill-opacity:1;stroke:none;stroke-width:13.7376;stroke-linecap:square;stroke-miterlimit:1.2;paint-order:markers stroke fill" id="circle1019" cx="8.996" cy="16.933" r="4.233"/><circle style="fill:url(#radialGradient1309);fill-opacity:1;stroke:none;stroke-width:13.7376;stroke-linecap:square;stroke-miterlimit:1.2;paint-order:markers stroke fill" id="circle1299" cx="24.871" cy="7.408" r="4.233"/><circle style="fill:url(#radialGradient1307);fill-opacity:1;stroke:none;stroke-width:13.7376;stroke-linecap:square;stroke-miterlimit:1.2;paint-order:markers stroke fill" id="circle1301" cx="24.871" cy="26.458" r="4.233"/><circle style="fill:url(#radialGradient1305);fill-opacity:1;stroke:none;stroke-width:13.7376;stroke-linecap:square;stroke-miterlimit:1.2;paint-order:markers stroke fill" id="circle1303" cx="24.871" cy="16.933" r="4.233"/></g></svg>