<svg xmlns="http://www.w3.org/2000/svg" xmlns:svg="http://www.w3.org/2000/svg" id="svg5" width="256" height="256" version="1.1" viewBox="0 0 67.733 67.733"><g id="layer1"><circle style="fill:#f2f2f2;stroke:none;stroke-width:1.04158;stroke-linecap:square;stroke-miterlimit:1.2;paint-order:markers stroke fill;fill-opacity:1" id="path846" cx="33.867" cy="33.867" r="33.867"/><circle style="fill:#1a1a1a;fill-opacity:1;stroke:none;stroke-width:.976486;stroke-linecap:square;stroke-miterlimit:1.2;paint-order:markers stroke fill" id="circle2476" cx="33.867" cy="33.867" r="31.75"/><circle style="fill:#1a1a1a;stroke:none;stroke-width:.911382;stroke-linecap:square;stroke-miterlimit:1.2;paint-order:markers stroke fill;fill-opacity:1" id="circle1012" cx="33.867" cy="33.867" r="29.633"/><path style="fill:#f2f2f2;stroke:none;stroke-width:.911382;stroke-linecap:square;stroke-miterlimit:1.2;paint-order:markers stroke fill;fill-opacity:1" id="circle1032" d="m 59.988156,18.785414 a 30.1625,30.1625 0 0 1 4.041009,15.081251 h -30.1625 z"/><path style="fill:#f2f2f2;stroke:none;stroke-width:.911382;stroke-linecap:square;stroke-miterlimit:1.2;paint-order:markers stroke fill;fill-opacity:1" id="path1338" d="m -7.7451738,-48.947916 a 30.1625,30.1625 0 0 1 4.0410093,15.081251 H -33.866665 Z" transform="matrix(0,-1,-1,0,0,0)"/><path style="fill:#f2f2f2;stroke:none;stroke-width:.911382;stroke-linecap:square;stroke-miterlimit:1.2;paint-order:markers stroke fill;fill-opacity:1" id="path1340" d="m -7.7451738,-48.947916 a 30.1625,30.1625 0 0 1 4.0410093,15.081251 H -33.866665 Z" transform="scale(-1)"/><path style="fill:#f2f2f2;stroke:none;stroke-width:.911382;stroke-linecap:square;stroke-miterlimit:1.2;paint-order:markers stroke fill;fill-opacity:1" id="path1342" d="m 59.988156,18.785414 a 30.1625,30.1625 0 0 1 4.041009,15.081251 h -30.1625 z" transform="matrix(0,1,1,0,0,0)"/><path style="fill:#f2f2f2;stroke:none;stroke-width:.911382;stroke-linecap:square;stroke-miterlimit:1.2;paint-order:markers stroke fill;fill-opacity:1" id="path1344" d="M 59.988156,48.947915 A 30.1625,30.1625 0 0 1 48.947914,59.988157 L 33.866665,33.866665 Z"/><path style="fill:#f2f2f2;stroke:none;stroke-width:.911382;stroke-linecap:square;stroke-miterlimit:1.2;paint-order:markers stroke fill;fill-opacity:1" id="path1448" d="M -7.7451734,-18.785415 A 30.1625,30.1625 0 0 1 -18.785416,-7.7451726 L -33.866665,-33.866665 Z" transform="scale(-1)"/><circle style="fill:#f2f2f2;stroke:none;stroke-width:.650987;stroke-linecap:square;stroke-miterlimit:1.2;paint-order:markers stroke fill;fill-opacity:1" id="circle1450" cx="33.867" cy="33.867" r="21.167"/><path style="fill:#1a1a1a;stroke:none;stroke-width:.911382;stroke-linecap:square;stroke-miterlimit:1.2;paint-order:markers stroke fill;fill-opacity:1" id="path1470" d="m -15.535795,-44.449998 a 21.166666,21.166666 0 0 1 2.835796,10.583333 h -21.166666 z" transform="scale(-1)"/><path style="fill:#1a1a1a;stroke:none;stroke-width:.911382;stroke-linecap:square;stroke-miterlimit:1.2;paint-order:markers stroke fill;fill-opacity:1" id="path1472" d="m 52.197535,23.283331 a 21.166666,21.166666 0 0 1 2.835796,10.583334 H 33.866665 Z" transform="matrix(0,1,1,0,0,0)"/><path style="fill:#1a1a1a;stroke:none;stroke-width:.911382;stroke-linecap:square;stroke-miterlimit:1.2;paint-order:markers stroke fill;fill-opacity:1" id="path1678" d="m 52.197535,23.283331 a 21.166666,21.166666 0 0 1 2.835796,10.583334 H 33.866665 Z"/><path style="fill:#1a1a1a;stroke:none;stroke-width:.911382;stroke-linecap:square;stroke-miterlimit:1.2;paint-order:markers stroke fill;fill-opacity:1" id="path1680" d="m -15.535795,-44.449998 a 21.166666,21.166666 0 0 1 2.835796,10.583333 h -21.166666 z" transform="matrix(0,-1,-1,0,0,0)"/><path style="fill:#1a1a1a;stroke:none;stroke-width:.911382;stroke-linecap:square;stroke-miterlimit:1.2;paint-order:markers stroke fill;fill-opacity:1" id="path1682" d="m -15.535794,-23.283332 a 21.166666,21.166666 0 0 1 -7.747539,7.747538 l -10.583332,-18.330871 z" transform="scale(-1)"/><path style="fill:#1a1a1a;stroke:none;stroke-width:.911382;stroke-linecap:square;stroke-miterlimit:1.2;paint-order:markers stroke fill;fill-opacity:1" id="path1804" d="m 52.197535,44.449998 a 21.166666,21.166666 0 0 1 -7.747538,7.747538 L 33.866665,33.866665 Z"/><circle style="fill:#f2f2f2;stroke:#1a1a1a;stroke-width:2.99999999;stroke-linecap:square;stroke-miterlimit:1.2;paint-order:markers stroke fill;stroke-opacity:1;fill-opacity:1" id="circle1806" cx="33.867" cy="33.867" r="10.583"/></g></svg>