<svg xmlns="http://www.w3.org/2000/svg" xmlns:svg="http://www.w3.org/2000/svg" xmlns:xlink="http://www.w3.org/1999/xlink" id="svg5" width="128" height="128" version="1.1" viewBox="0 0 33.867 33.867"><defs id="defs2"><linearGradient id="linearGradient6231"><stop style="stop-color:#f78292;stop-opacity:1" id="stop6227" offset="0"/><stop style="stop-color:#f2f2f2;stop-opacity:1" id="stop6229" offset="1"/></linearGradient><linearGradient id="linearGradient6225" x1="14.8" x2="3.642" y1="20.306" y2="4.973" gradientUnits="userSpaceOnUse" xlink:href="#linearGradient6231"/></defs><g id="layer1"><circle style="fill:url(#linearGradient6225);fill-opacity:1;stroke-width:3.06147;stroke-linecap:square;stroke-miterlimit:1.2;paint-order:markers stroke fill" id="path6105" cx="16.933" cy="16.933" r="16.933"/><circle style="fill:#f78292;fill-opacity:1;stroke-width:2.67878;stroke-linecap:square;stroke-miterlimit:1.2;paint-order:markers stroke fill" id="circle6187" cx="16.933" cy="16.933" r="14.817"/><path style="font-size:25.4px;line-height:1.25;font-family:Coda;-inkscape-font-specification:Coda;letter-spacing:0;word-spacing:0;fill:#f1f1f1;stroke-width:.264583" id="path5801" d="m 13.733528,26.613363 q -0.74414,-0.694532 -0.74414,-1.922364 0,-1.227832 0.74414,-1.909961 0.756543,-0.694531 1.785938,-0.694531 1.029394,0 1.773535,0.694531 0.756543,0.682129 0.756543,1.909961 0,1.227832 -0.756543,1.922364 -0.744141,0.682128 -1.773535,0.682128 -1.029395,0 -1.785938,-0.682128 z m 2.530079,-6.833692 q -0.08682,0.706934 -0.768946,0.706934 -0.756543,0 -0.756543,-0.892969 0,-0.979785 0.235645,-2.00918 0.235644,-1.029394 0.533301,-1.74873 0.297656,-0.719336 0.607714,-1.550293 0.322461,-0.843359 0.42168,-1.401465 0.02481,-0.223242 0.02481,-0.334863 0,-0.63252 -0.434082,-1.016992 -0.42168,-0.396875 -1.327051,-0.396875 -0.967383,0 -2.406055,0.607715 L 11.947591,7.4393394 q 2.716113,-0.8681641 4.601269,-0.8681641 1.203028,0 2.145606,0.2232422 0.942578,0.2232422 1.537891,0.5953125 0.607714,0.3720703 0.992187,0.8929687 0.384473,0.5208984 0.533301,1.0666016 0.16123,0.5457031 0.16123,1.1782227 0,0.768945 -0.285254,1.475879 -0.285254,0.694531 -0.756543,1.265039 -0.458886,0.570508 -1.029394,1.128613 -0.558106,0.558106 -1.153418,1.141016 -0.58291,0.58291 -1.091406,1.190625 -0.508496,0.607715 -0.880567,1.401465 -0.359668,0.781347 -0.458886,1.649511 z"/></g></svg>